<svg height="1200" width="1200" xmlns="http://www.w3.org/2000/svg" version="1.1">
<path transform="translate(423,88)" fill="#231F20" d="M0 0 C119.79 0 239.58 0 363 0 C363 10.23 363 20.46 363 31 C325.71 31 288.42 31 250 31 C250.00999275 45.82220459 250.00999275 45.82220459 250.02018738 60.94384766 C250.02460441 67.64863584 250.02900758 74.35342403 250.0333252 81.05821228 C250.03388618 81.92921918 250.03444717 82.80022607 250.03502516 83.69762712 C250.07213102 141.39517654 250.10564474 199.09272557 250.12702942 256.7902832 C250.12744359 257.9048917 250.12785776 259.01950021 250.12828448 260.16788472 C250.13726401 284.39358041 250.14557444 308.61927628 250.15319599 332.84497243 C250.15693787 344.72591265 250.16082755 356.60685282 250.16479492 368.48779297 C250.1651872 369.67006501 250.16557948 370.85233705 250.16598364 372.07043551 C250.17875886 410.36462279 250.2012862 448.65879676 250.22889166 486.95297599 C250.25721734 526.31790572 250.2756628 565.68282809 250.28174497 605.04776785 C250.28260939 610.61271683 250.28358629 616.17766579 250.28463173 621.74261475 C250.284834 622.83783493 250.28503627 623.9330551 250.28524467 625.06146377 C250.28878449 642.6640548 250.30268426 660.266623 250.3204961 677.86920474 C250.33819735 695.58234496 250.34489406 713.29546264 250.34050413 731.00861138 C250.33822912 741.52152752 250.3442453 752.03436091 250.36239263 762.54726204 C250.37370757 769.58550463 250.37394547 776.62369354 250.36549544 783.66193995 C250.36100043 787.66222671 250.36101734 791.6623579 250.37464955 795.66262746 C250.44496916 817.57345398 249.72400948 839.33264744 244.3125 860.6875 C244.0561377 861.71601074 243.79977539 862.74452148 243.53564453 863.80419922 C237.18015852 888.33766068 225.92476069 911.52575083 211 932 C210.39357666 932.83748779 210.39357666 932.83748779 209.77490234 933.69189453 C202.32489939 943.8939398 193.93785332 953.07644725 185 962 C184.31421875 962.7321875 183.6284375 963.464375 182.921875 964.21875 C151.95063474 996.74969301 105.5870442 1015.53831867 62 1023 C60.98212402 1023.18256348 59.96424805 1023.36512695 58.91552734 1023.55322266 C48.80988346 1025.20201505 38.83653072 1025.39770751 28.625 1025.375 C27.74592987 1025.37478851 26.86685974 1025.37457703 25.96115112 1025.37435913 C11.65796233 1025.34009475 -2.0546062 1024.40042962 -16 1021 C-16.7719873 1020.81808105 -17.54397461 1020.63616211 -18.33935547 1020.44873047 C-40.00476092 1015.18867651 -60.30674335 1004.74652118 -77 990 C-78.48113281 988.73542969 -78.48113281 988.73542969 -79.9921875 987.4453125 C-98.72050333 971.17991482 -111.73884084 948.7881673 -115 924 C-115.32371872 918.83059411 -115.3892422 913.67692725 -115.375 908.5 C-115.37478851 907.79234497 -115.37457703 907.08468994 -115.37435913 906.35559082 C-115.30316061 882.48012723 -109.23872411 861.13884265 -92.49609375 843.3515625 C-78.27432243 829.95327402 -58.98515822 825.33386067 -39.796875 825.81640625 C-18.89112919 827.18871079 -1.3442721 834.46920022 13 850 C25.18058444 865.31207685 29.29926345 883.65541093 28 903 C26.06434678 919.29852544 20.22138578 932.52776733 11.41796875 946.203125 C4.17388229 956.77854117 4.17388229 956.77854117 3.27734375 969.03515625 C4.96767303 973.6310245 7.0247335 976.02234284 11.3203125 978.1484375 C14.1818968 979.25803141 17.05167706 980.14843047 20 981 C20.91136719 981.30035156 21.82273437 981.60070313 22.76171875 981.91015625 C41.12242901 987.1805871 61.88005242 985.33408306 78.8125 976.75 C96.90571382 966.30649055 108.32852386 950.31271019 114.12167472 930.33448493 C118.83432398 912.44332518 118.43643618 894.46917702 118.40173779 876.12258466 C118.39655439 871.61231014 118.40885993 867.1020759 118.41886932 862.59181416 C118.43401027 854.70075879 118.43816884 846.80975812 118.43499184 838.91868973 C118.43031828 827.18511129 118.44284742 815.45159449 118.45882157 803.71802823 C118.48521388 783.97696576 118.49777387 764.23591733 118.50238609 744.49483871 C118.50699665 724.95535236 118.51779465 705.41588547 118.53681374 685.87640762 C118.53799386 684.66043246 118.53917399 683.44445731 118.54038988 682.19163441 C118.5464155 676.01603615 118.55255125 669.84043799 118.55872939 663.66483988 C118.60226436 619.9499049 118.63199058 576.2349704 118.65356445 532.52001953 C118.67455178 490.05777284 118.70181358 447.59553773 118.73754883 405.13330078 C118.73864831 403.82388716 118.73974778 402.51447354 118.74088058 401.16538072 C118.75192914 388.01542865 118.76310503 374.86547668 118.7743742 361.71552479 C118.79732687 334.92876884 118.81942978 308.14201221 118.84101868 281.35525513 C118.8420123 280.12370707 118.84300591 278.89215902 118.84402964 277.62329132 C118.89534878 213.92189112 118.93405278 150.22048405 118.96986389 86.51907349 C118.97036763 85.62316308 118.97087137 84.72725267 118.97139038 83.80419347 C118.98126433 66.20279582 118.99057873 48.6013979 119 31 C79.73 31 40.46 31 0 31 C0 20.77 0 10.54 0 0 Z"></path>
<path transform="translate(859.125,817.875)" fill="#231F20" d="M0 0 C17.39692565 14.41149379 30.29719825 34.31843874 32.875 57.125 C34.83900139 84.54366267 30.25751763 108.89828176 11.875 130.125 C-1.77720981 145.61582011 -22.13470016 158.29836322 -43.125 160.125 C-70.39371115 161.66851195 -94.18179386 156.72200351 -115.46875 138.5546875 C-132.43667039 123.03403091 -144.0668106 102.09840247 -145.24169922 78.81201172 C-146.28004571 51.66519173 -138.79754356 27.34285751 -120.125 7.125 C-88.29687486 -25.66036198 -35.58964821 -27.65083442 0 0 Z"></path>
</svg>
